<svg width="16" height="17" viewBox="0 0 16 17" fill="none" xmlns="http://www.w3.org/2000/svg">
<g id="akar-icons:github-fill" clip-path="url(#clip0_0_71)">
<path id="Vector" fill-rule="evenodd" clip-rule="evenodd" d="M8 0.500061C3.58 0.500061 0 4.08006 0 8.50006C0 12.0401 2.29 15.0301 5.47 16.0901C5.87 16.1601 6.02 15.9201 6.02 15.7101C6.02 15.5201 6.01 14.8901 6.01 14.2201C4 14.5901 3.48 13.7301 3.32 13.2801C3.23 13.0501 2.84 12.3401 2.5 12.1501C2.22 12.0001 1.82 11.6301 2.49 11.6201C3.12 11.6101 3.57 12.2001 3.72 12.4401C4.44 13.6501 5.59 13.3101 6.05 13.1001C6.12 12.5801 6.33 12.2301 6.56 12.0301C4.78 11.8301 2.92 11.1401 2.92 8.08006C2.92 7.21006 3.23 6.49006 3.74 5.93006C3.66 5.73006 3.38 4.91006 3.82 3.81006C3.82 3.81006 4.49 3.60006 6.02 4.63006C6.66 4.45006 7.34 4.36006 8.02 4.36006C8.7 4.36006 9.38 4.45006 10.02 4.63006C11.55 3.59006 12.22 3.81006 12.22 3.81006C12.66 4.91006 12.38 5.73006 12.3 5.93006C12.81 6.49006 13.12 7.20006 13.12 8.08006C13.12 11.1501 11.25 11.8301 9.47 12.0301C9.76 12.2801 10.01 12.7601 10.01 13.5101C10.01 14.5801 10 15.4401 10 15.7101C10 15.9201 10.15 16.1701 10.55 16.0901C12.1381 15.5539 13.5181 14.5332 14.4958 13.1716C15.4734 11.8101 15.9995 10.1763 16 8.50006C16 4.08006 12.42 0.500061 8 0.500061Z" fill="black"/>
</g>
<defs>
<clipPath id="clip0_0_71">
<rect width="16" height="16" fill="white" transform="translate(0 0.500061)"/>
</clipPath>
</defs>
</svg>
