<svg width="51" height="50" viewBox="0 0 51 50" fill="none" xmlns="http://www.w3.org/2000/svg">
<g id="akar-icons:postgresql-fill">
<path id="Vector" d="M35.0436 2.08301C33.2096 2.09647 31.3857 2.35572 29.6207 2.85384L29.4957 2.89134C28.3838 2.70093 27.259 2.59577 26.1311 2.57676C23.8123 2.53717 21.8186 3.08301 20.2144 3.99342C18.6311 3.46009 15.3477 2.54134 11.8873 2.72467C9.4769 2.85176 6.84774 3.56217 4.89982 5.55801C2.95607 7.55384 1.92899 10.6413 2.14565 14.8434C2.20399 16.0038 2.54357 17.8934 3.11024 20.3434C3.67274 22.7913 4.46857 25.6559 5.45815 28.2705C6.44774 30.8872 7.53315 33.2372 9.22899 34.833C10.0748 35.633 11.2394 36.3059 12.6123 36.2497C13.5769 36.2122 14.4498 35.8018 15.2019 35.1955C15.5686 35.6643 15.9602 35.8684 16.3165 36.058C16.7644 36.2955 17.2019 36.458 17.654 36.5663C18.906 36.8868 20.2098 36.9513 21.4873 36.7559C22.0436 36.6663 22.629 36.4913 23.2123 36.2413C23.2332 36.8705 23.2582 37.4872 23.2852 38.1122C23.3644 40.0913 23.4165 41.9184 24.029 43.5205C24.1269 43.783 24.3957 45.1309 25.4602 46.3205C26.5227 47.5122 28.6061 48.2538 30.9769 47.7622C32.6498 47.4143 34.779 46.7872 36.1915 44.8372C37.5873 42.908 38.2186 40.1393 38.3436 35.6518C38.3748 35.4101 38.4123 35.2038 38.4519 35.0101L38.7852 35.0393H38.8227C40.6082 35.1184 42.5457 34.8726 44.1644 34.1434C45.5977 33.4976 46.6811 32.8476 47.4707 31.6913C47.6686 31.4059 47.8852 31.0601 47.9436 30.4622C48.0019 29.8684 47.6519 28.9351 47.0665 28.5059C45.8936 27.6434 45.1582 27.9705 44.3686 28.1309C43.5915 28.2976 42.7998 28.3893 42.0019 28.408C44.279 24.6913 45.9102 20.7413 46.8415 17.2455C47.3915 15.183 47.7019 13.2809 47.7269 11.6184C47.7519 9.95592 47.6123 8.48301 46.5852 7.20801C43.3748 3.22884 38.8602 2.12884 35.3686 2.09134C35.2602 2.08926 35.1519 2.08717 35.0436 2.08926V2.08301ZM34.9519 3.30592C38.254 3.27467 42.4748 4.17467 45.504 7.93092C46.1852 8.77467 46.3873 10.008 46.3644 11.5288C46.3394 13.0476 46.0498 14.8643 45.5207 16.8559C44.4936 20.7143 42.5519 25.2101 39.8165 29.2476C39.9138 29.3145 40.0187 29.3697 40.129 29.4122C40.6998 29.6413 41.9998 29.8372 44.5977 29.3205C45.2498 29.1851 45.729 29.0955 46.2248 29.4622C46.3437 29.5604 46.4382 29.685 46.5007 29.826C46.5633 29.967 46.5922 30.1206 46.5852 30.2747C46.5582 30.5075 46.4697 30.7289 46.329 30.9163C45.829 31.6476 44.8373 32.3413 43.5665 32.9122C42.4436 33.4205 40.8311 33.6851 39.4019 33.7018C38.6852 33.708 38.0248 33.6538 37.4644 33.4851L37.4269 33.4726C37.2102 35.4955 36.7123 39.4934 36.3894 41.3163C36.129 42.7872 35.6748 43.9559 34.8061 44.8309C33.9394 45.7059 32.7144 46.233 31.0644 46.5768C29.0207 47.0018 27.5311 46.5434 26.5707 45.758C25.6123 44.9768 25.1727 43.9372 24.9082 43.2997C24.7269 42.8622 24.6332 42.2934 24.5415 41.533C24.4408 40.6226 24.3734 39.7088 24.3394 38.7934C24.2793 37.1879 24.2599 35.5812 24.2811 33.9747C23.4269 34.733 22.3644 35.2372 21.2248 35.4268C19.8707 35.6497 18.6582 35.4309 17.9352 35.2559C17.5808 35.1688 17.238 35.0394 16.9144 34.8705C16.5769 34.6976 16.2582 34.5018 16.0457 34.1143C15.9205 33.8931 15.8804 33.6337 15.9332 33.3851C16.0012 33.1324 16.1524 32.9101 16.3623 32.7538C16.754 32.4455 17.2686 32.2747 18.0457 32.1163C19.4623 31.8351 19.9561 31.6413 20.2561 31.4101C20.5123 31.2122 20.8019 30.8122 21.3144 30.2226C21.3119 30.1969 21.3098 30.1712 21.3082 30.1455C20.3943 30.1207 19.4983 29.8862 18.6894 29.4601C18.3957 29.7622 16.8873 31.3101 15.0477 33.4559C14.2748 34.3538 13.4207 34.8684 12.5186 34.9059C11.6165 34.9434 10.8019 34.5018 10.1102 33.8518C8.72482 32.5476 7.62065 30.3038 6.65815 27.7684C5.69982 25.2309 4.91649 22.4059 4.36232 19.9997C3.80399 17.5934 3.47482 15.6538 3.42899 14.7184C3.22065 10.7413 4.17899 8.06217 5.82482 6.37259C7.47065 4.68301 9.72482 4.04342 11.9248 3.92051C15.8707 3.69967 19.6186 5.03509 20.3769 5.32259C21.8373 4.36009 23.7186 3.76009 26.0707 3.79759C27.1855 3.81283 28.2952 3.95259 29.379 4.21426L29.4186 4.19759C29.8957 4.03509 30.3811 3.89759 30.8727 3.78926C32.2111 3.48656 33.5777 3.32595 34.9498 3.31009V3.30592H34.9519ZM35.2498 4.58509H34.9644C33.8372 4.6003 32.7141 4.72308 31.6102 4.95176C33.8014 5.90594 35.7266 7.38057 37.2186 9.24759C38.1221 10.3648 38.8718 11.598 39.4477 12.9143C39.6644 13.4184 39.8102 13.8455 39.8915 14.1747C39.9332 14.3413 39.9623 14.4809 39.9707 14.6268C39.9787 14.7191 39.9709 14.8121 39.9477 14.9018L39.9352 14.9268C39.9957 16.5997 39.5686 17.733 39.5165 19.3288C39.4769 20.4872 39.7811 21.8476 39.8561 23.3288C39.9269 24.7247 39.754 26.2559 38.8207 27.7601C38.8998 27.8518 38.9706 27.9434 39.0457 28.0351C41.5144 24.2643 43.2957 20.0893 44.2436 16.533C44.7498 14.6163 45.0206 12.8809 45.0436 11.5059C45.0644 10.1309 44.7998 9.13301 44.4623 8.71842C41.8207 5.44134 38.2477 4.60592 35.2498 4.58301V4.58509ZM25.8227 5.07467C23.4957 5.07884 21.8248 5.76217 20.5602 6.78301C19.254 7.83926 18.379 9.28301 17.804 10.7643C17.2474 12.2445 16.9071 13.7973 16.7936 15.3747L16.8207 15.3601C17.5227 14.9768 18.4457 14.5955 19.4332 14.3747C20.4227 14.1538 21.4873 14.0851 22.4519 14.4476C23.4165 14.8122 24.2144 15.6643 24.504 16.9601C25.8894 23.1809 24.0727 25.4934 23.4019 27.2372C23.148 27.8694 22.9303 28.5156 22.7498 29.1726C22.8352 29.1518 22.9207 29.1309 23.004 29.1226C23.37 29.1028 23.7351 29.1744 24.0665 29.3309C24.7415 29.6018 25.204 30.1684 25.454 30.8184C25.5186 30.9893 25.5665 31.1726 25.5936 31.3601C25.6227 31.4393 25.6352 31.5205 25.6332 31.6038C25.5584 33.9826 25.5667 36.3632 25.6582 38.7413C25.704 39.7705 25.7707 40.6747 25.8561 41.3893C25.9394 42.1018 26.0602 42.6434 26.1373 42.8268C26.3873 43.4393 26.7561 44.2393 27.4227 44.783C28.0894 45.3247 29.0415 45.6872 30.7852 45.3247C32.2977 45.0101 33.2311 44.5747 33.8561 43.9434C34.4769 43.3163 34.8498 42.4434 35.0873 41.1038C35.4436 39.0976 36.1602 33.283 36.2457 32.1872C36.2082 31.3643 36.3332 30.7288 36.604 30.2455C36.8852 29.7497 37.3186 29.4455 37.6915 29.2809C37.879 29.1976 38.054 29.1434 38.1977 29.1038C38.0452 28.8915 37.8853 28.6844 37.7186 28.483C37.1814 27.8516 36.7399 27.1448 36.4081 26.3851C36.2497 26.0719 36.0809 25.7641 35.9019 25.4622C35.6415 25.0038 35.3102 24.4309 34.9644 23.7872C34.2707 22.4976 33.5165 20.9351 33.1248 19.4122C32.7352 17.8934 32.6769 16.3205 33.6769 15.2101C34.5644 14.2247 36.1186 13.8163 38.454 14.0455C38.3852 13.8455 38.3436 13.6788 38.2269 13.4122C37.6971 12.2032 37.0084 11.0703 36.179 10.0434C34.1998 7.58926 30.9977 5.15592 26.0477 5.07676H25.8227V5.07467ZM12.7477 5.17259C12.4977 5.17259 12.2477 5.18092 11.9977 5.19342C10.0102 5.30384 8.13107 5.86426 6.78732 7.24759C5.4394 8.62884 4.55399 10.8955 4.74565 14.6497C4.78524 15.358 5.10399 17.3497 5.64982 19.7122C6.19565 22.0788 6.97065 24.8601 7.89982 27.3163C8.82899 29.7747 9.95815 31.9143 11.029 32.9268C11.5686 33.433 12.0373 33.6372 12.4623 33.6205C12.8894 33.5997 13.4019 33.3622 14.0311 32.6309C15.1769 31.2901 16.365 29.986 17.5936 28.7205C16.7259 27.9922 16.0577 27.0552 15.6519 25.9976C15.2513 24.9494 15.1293 23.8153 15.2977 22.7059C15.4998 21.2934 15.5269 19.9726 15.504 18.9309C15.479 17.9143 15.404 17.2393 15.404 16.8163V16.758C15.4021 14.5562 15.7966 12.3721 16.5686 10.3101C17.1186 8.88926 17.9394 7.44551 19.1707 6.27676C17.9623 5.89134 15.8165 5.30384 13.4936 5.19342C13.2438 5.1804 12.9937 5.17345 12.7436 5.17259H12.7477ZM37.1519 15.2601C35.8165 15.2768 35.0665 15.6122 34.6727 16.0497C34.1144 16.6705 34.0623 17.758 34.4082 19.0997C34.7519 20.4413 35.4644 21.9434 36.1352 23.1893C36.4686 23.8143 36.7936 24.3768 37.0561 24.8309C37.3207 25.2893 37.5144 25.6143 37.6311 25.8934C37.7394 26.1476 37.8602 26.3726 37.9811 26.583C38.4977 25.5226 38.5915 24.483 38.5373 23.3976C38.4686 22.0559 38.1477 20.683 38.1957 19.2934C38.2477 17.6684 38.579 16.608 38.6082 15.3518C38.1251 15.2911 37.6387 15.2604 37.1519 15.2601ZM20.9436 15.4788C20.5355 15.4826 20.129 15.5301 19.7311 15.6205C18.9401 15.8068 18.1767 16.0953 17.4602 16.4788C17.2207 16.6038 16.9894 16.7497 16.7727 16.9143L16.7311 16.9518C16.7436 17.2309 16.7998 17.908 16.8248 18.9018C16.8457 19.9913 16.8207 21.3809 16.604 22.8809C16.1332 26.1476 18.5748 28.8518 21.4457 28.8559C21.6123 28.1851 21.8894 27.5059 22.1644 26.7893C22.9644 24.6997 24.5373 23.1768 23.2123 17.2288C22.9957 16.2559 22.5665 15.8622 21.9748 15.6393C21.6432 15.5256 21.2941 15.4713 20.9436 15.4788ZM36.5269 15.8684H36.6269C36.7561 15.8726 36.8769 15.8872 36.9811 15.9101C37.0769 15.9292 37.1686 15.9652 37.2519 16.0163C37.2896 16.039 37.3222 16.0692 37.3476 16.105C37.3731 16.1409 37.3909 16.1816 37.3998 16.2247V16.2413C37.4031 16.3327 37.3784 16.4228 37.329 16.4997C37.2705 16.6045 37.1976 16.7006 37.1123 16.7851C36.9108 16.9998 36.6444 17.1425 36.354 17.1913C36.0695 17.225 35.7824 17.1547 35.5457 16.9934C35.4498 16.9312 35.3635 16.8554 35.2894 16.7684C35.2257 16.7013 35.1824 16.6175 35.1644 16.5268C35.16 16.4822 35.1652 16.4372 35.1795 16.3948C35.1939 16.3525 35.2172 16.3136 35.2477 16.2809C35.3131 16.2096 35.3916 16.1516 35.479 16.1101C35.8081 15.9561 36.1657 15.8724 36.529 15.8643V15.8684H36.5269ZM21.1352 16.1893C21.2394 16.1893 21.3498 16.1997 21.4623 16.2143C21.7623 16.2559 22.0311 16.333 22.2352 16.4476C22.3352 16.4997 22.4227 16.5663 22.4977 16.6497C22.5367 16.6941 22.5664 16.7458 22.5852 16.8018C22.6039 16.8574 22.6103 16.9164 22.604 16.9747C22.5846 17.085 22.5331 17.1871 22.4561 17.2684C22.3753 17.3653 22.2805 17.4496 22.1748 17.5184C21.9162 17.6948 21.6022 17.7711 21.2915 17.733C20.9759 17.683 20.6858 17.5299 20.4665 17.2976C20.3741 17.2052 20.2955 17.0999 20.2332 16.9851C20.1683 16.8852 20.1396 16.7661 20.1519 16.6476C20.1811 16.4393 20.3582 16.3351 20.5269 16.2726C20.7224 16.2126 20.9268 16.1872 21.1311 16.1976L21.1352 16.1893ZM38.9686 30.2143H38.9623C38.6727 30.3184 38.4352 30.3601 38.2332 30.4434C38.0321 30.5186 37.8655 30.6645 37.7644 30.8538C37.6394 31.0726 37.5352 31.4622 37.5665 32.1247C37.6561 32.1842 37.7545 32.2292 37.8582 32.258C38.1936 32.358 38.7582 32.4247 39.3894 32.4143C40.6436 32.3997 42.1894 32.1163 43.0102 31.7455C43.6832 31.4413 44.3082 31.0455 44.8665 30.5705C42.1227 31.1205 40.5748 30.9747 39.6227 30.5934C39.3872 30.499 39.1668 30.3705 38.9686 30.2122V30.2143ZM23.1602 30.3934H23.1186C23.0144 30.4018 22.8623 30.4351 22.5707 30.7518C21.8832 31.4976 21.6457 31.9643 21.079 32.4018C20.5165 32.8393 19.7811 33.0705 18.3144 33.3622C17.8498 33.4538 17.5852 33.5559 17.4061 33.6372C17.4644 33.683 17.4582 33.6955 17.5436 33.7393C17.7582 33.8538 18.0352 33.9538 18.2561 34.0101C18.8873 34.1622 19.9227 34.3413 21.004 34.1622C22.0832 33.983 23.2082 33.4809 24.1665 32.1768C24.3332 31.9518 24.3498 31.6184 24.2144 31.2601C24.0748 30.9059 23.7748 30.5976 23.5623 30.5101C23.4351 30.4514 23.2994 30.4135 23.1602 30.3976V30.3934Z" fill="black"/>
</g>
</svg>
