<svg width="51" height="50" viewBox="0 0 51 50" fill="none" xmlns="http://www.w3.org/2000/svg">
<g id="akar-icons:react-fill" clip-path="url(#clip0_0_128)">
<g id="Group">
<g id="Group_2">
<path id="Vector" d="M50.0331 24.3518C50.0331 21.0393 45.8852 17.8997 39.5248 15.9538C40.9936 9.47259 40.3415 4.31426 37.4665 2.66217C36.7698 2.27201 35.9814 2.07562 35.1831 2.09342V4.36426C35.6519 4.36426 36.029 4.45801 36.3456 4.63092C37.7311 5.42676 38.3331 8.45176 37.8644 12.3455C37.7519 13.3038 37.5686 14.3122 37.3436 15.3413C35.2136 14.8281 33.0519 14.4571 30.8727 14.2309C29.5745 12.4399 28.1582 10.7375 26.6331 9.13509C29.9561 6.04759 33.0748 4.35592 35.1956 4.35592V2.08301C32.3915 2.08301 28.7227 4.08092 25.0123 7.54551C21.304 4.10384 17.6331 2.12467 14.8311 2.12467V4.39551C16.9415 4.39551 20.0706 6.07884 23.3936 9.14551C21.9665 10.6455 20.5394 12.3455 19.1831 14.2309C16.9995 14.4546 14.8339 14.8291 12.7019 15.3518C12.4766 14.3763 12.2993 13.3904 12.1706 12.3976C11.6915 8.50176 12.2831 5.47676 13.6602 4.67259C13.9644 4.48926 14.3623 4.40592 14.8311 4.40592V2.13509C13.9769 2.13509 13.1998 2.31842 12.529 2.70384C9.66439 4.35592 9.02273 9.50176 10.4998 15.9643C4.16023 17.9226 0.0331421 21.0497 0.0331421 24.3518C0.0331421 27.6643 4.18106 30.8038 10.5415 32.7476C9.07273 39.2309 9.72481 44.3893 12.5998 46.0393C13.2623 46.4268 14.0373 46.6101 14.8915 46.6101C17.6956 46.6101 21.3644 44.6122 25.0748 41.1476C28.7831 44.5913 32.4519 46.5684 35.2561 46.5684C36.0604 46.5854 36.8549 46.3884 37.5581 45.9976C40.4227 44.3476 41.0644 39.2018 39.5873 32.7393C45.9061 30.7934 50.0331 27.6538 50.0331 24.3518ZM36.7623 17.5538C36.3664 18.916 35.9076 20.2592 35.3873 21.5788C34.5356 19.9221 33.6003 18.3096 32.5852 16.7476C34.0331 16.9622 35.429 17.2268 36.7644 17.5538H36.7623ZM32.0956 28.408C31.3326 29.7402 30.5131 31.0393 29.6394 32.3018C26.5816 32.5713 23.5061 32.5748 20.4477 32.3122C18.6934 29.8063 17.1593 27.1534 15.8623 24.383C17.1573 21.6061 18.6849 18.9439 20.429 16.4247C23.486 16.1546 26.5608 16.1504 29.6186 16.4122C30.4644 17.6247 31.2915 18.9205 32.0852 20.2872C32.8602 21.6205 33.5644 22.9747 34.2061 24.3413C33.5573 25.7246 32.8532 27.0812 32.0956 28.408ZM35.3873 27.083C35.9373 28.4476 36.4081 29.8143 36.7936 31.1393C35.4602 31.4663 34.0519 31.7413 32.5956 31.9538C33.6066 30.3776 34.5383 28.752 35.3873 27.083ZM25.054 37.958C24.1061 36.9788 23.1581 35.8893 22.2206 34.6955C23.1373 34.7372 24.0748 34.7684 25.0227 34.7684C25.9811 34.7684 26.929 34.7476 27.8561 34.6955C26.9394 35.8893 25.9915 36.9788 25.054 37.958ZM17.4706 31.9538C16.0659 31.7503 14.6714 31.482 13.2915 31.1497C13.6686 29.8351 14.1373 28.4788 14.6665 27.1247C15.0852 27.9372 15.5248 28.7538 16.004 29.5705C16.4831 30.3851 16.9706 31.1809 17.4706 31.9538ZM25.0019 10.7455C25.9498 11.7247 26.8977 12.8143 27.8352 14.008C26.9186 13.9663 25.9811 13.9351 25.0331 13.9351C24.0748 13.9351 23.1269 13.9559 22.1998 14.008C23.1165 12.8143 24.0644 11.7247 25.0019 10.7455ZM17.4602 16.7497C16.4495 18.3225 15.5178 19.9446 14.6686 21.6101C14.1336 20.2819 13.6643 18.9282 13.2623 17.5538C14.5956 17.2372 16.004 16.9622 17.4602 16.7497ZM8.23731 29.508C4.62898 27.9705 2.29564 25.9518 2.29564 24.3518C2.29564 22.7518 4.62898 20.7226 8.23731 19.1955C9.11231 18.8184 10.0706 18.4809 11.0602 18.1663C11.6415 20.1622 12.4061 22.2413 13.3519 24.3726C12.4589 26.3771 11.7037 28.4403 11.0915 30.5476C10.1237 30.2479 9.17113 29.901 8.23731 29.508ZM13.7206 44.0705C12.3352 43.2788 11.7331 40.2497 12.2019 36.358C12.3144 35.3997 12.4977 34.3893 12.7227 33.3601C14.7186 33.8497 16.8998 34.2268 19.1936 34.4726C20.4918 36.2636 21.9082 37.966 23.4331 39.5684C20.1102 42.6559 16.9915 44.3476 14.8706 44.3476C14.4705 44.352 14.0755 44.2575 13.7206 44.0726V44.0705ZM37.8956 36.3059C38.3748 40.1997 37.7831 43.2268 36.4061 44.0309C36.1019 44.2143 35.704 44.2955 35.2352 44.2955C33.1248 44.2955 29.9956 42.6143 26.6727 39.5455C28.1913 37.9498 29.5981 36.2513 30.8831 34.4622C33.0668 34.2385 35.2324 33.864 37.3644 33.3413C37.5998 34.3705 37.7811 35.358 37.8956 36.3059ZM41.8186 29.508C40.9436 29.8851 39.9852 30.2226 38.9956 30.5372C38.3727 28.4191 37.607 26.3456 36.704 24.3309C37.6415 22.2122 38.3936 20.1434 38.9644 18.1559C39.9353 18.4566 40.8912 18.8035 41.829 19.1955C45.4373 20.733 47.7706 22.7518 47.7706 24.3518C47.7602 25.9518 45.4269 27.9809 41.8186 29.508Z" fill="black"/>
<path id="Vector_2" d="M25.0227 29.0101C26.2582 29.0101 27.443 28.5193 28.3167 27.6457C29.1903 26.7721 29.681 25.5872 29.681 24.3518C29.681 23.1163 29.1903 21.9314 28.3167 21.0578C27.443 20.1842 26.2582 19.6934 25.0227 19.6934C23.7872 19.6934 22.6024 20.1842 21.7288 21.0578C20.8552 21.9314 20.3644 23.1163 20.3644 24.3518C20.3644 25.5872 20.8552 26.7721 21.7288 27.6457C22.6024 28.5193 23.7872 29.0101 25.0227 29.0101Z" fill="black"/>
</g>
</g>
</g>
<defs>
<clipPath id="clip0_0_128">
<rect width="50" height="50" fill="white" transform="translate(0.0331421)"/>
</clipPath>
</defs>
</svg>
