<svg width="16" height="17" viewBox="0 0 16 17" fill="none" xmlns="http://www.w3.org/2000/svg">
<g id="akar-icons:linkedin-fill">
<path id="Vector" fill-rule="evenodd" clip-rule="evenodd" d="M6.28598 6.47907H8.76198V7.7124C9.11865 7.00307 10.0333 6.36574 11.4073 6.36574C14.0413 6.36574 14.6666 7.77774 14.6666 10.3684V15.1664H12V10.9584C12 9.48307 11.6433 8.65107 10.7353 8.65107C9.47598 8.65107 8.95265 9.54774 8.95265 10.9577V15.1664H6.28598V6.47907ZM1.71331 15.0531H4.37998V6.36574H1.71331V15.0531ZM4.76198 3.53307C4.76208 3.75659 4.71775 3.97789 4.63157 4.18413C4.54539 4.39036 4.41908 4.57741 4.25998 4.7344C3.93758 5.05482 3.50119 5.23417 3.04665 5.23307C2.59291 5.23276 2.15752 5.05387 1.83465 4.73507C1.67612 4.57754 1.55024 4.39028 1.46421 4.18402C1.37818 3.97776 1.3337 3.75655 1.33331 3.53307C1.33331 3.08174 1.51331 2.64974 1.83531 2.33107C2.1579 2.01184 2.59347 1.83287 3.04731 1.83307C3.50198 1.83307 3.93798 2.0124 4.25998 2.33107C4.58131 2.64974 4.76198 3.08174 4.76198 3.53307Z" fill="black"/>
</g>
</svg>
