<svg width="51" height="50" viewBox="0 0 51 50" fill="none" xmlns="http://www.w3.org/2000/svg">
<g id="akar-icons:graphql-fill">
<g id="Group">
<g id="Group_2">
<path id="Vector" fill-rule="evenodd" clip-rule="evenodd" d="M23.7498 8.72254C24.5435 8.96252 25.3886 8.97551 26.1894 8.76004L39.3685 32.0559C38.7584 32.6437 38.3296 33.3942 38.1331 34.2184H11.9289C11.7181 33.3531 11.2538 32.5704 10.5956 31.9704L23.7477 8.72254H23.7498ZM21.831 7.54545C21.8685 7.58712 21.9102 7.6267 21.9498 7.66629L8.76853 30.9684C8.70637 30.9517 8.64385 30.9364 8.58103 30.9225V19.0746C9.18032 18.9405 9.7451 18.6831 10.2394 18.3187C10.7337 17.9542 11.1466 17.4908 11.4519 16.958C11.7559 16.4281 11.9479 15.8415 12.016 15.2344C12.0841 14.6274 12.0268 14.0128 11.8477 13.4288L21.831 7.54753V7.54545ZM29.2685 5.80587C29.4797 5.14295 29.5323 4.43972 29.4222 3.75276C29.312 3.0658 29.0422 2.41427 28.6344 1.85059C28.2266 1.28691 27.6921 0.826808 27.0741 0.507296C26.4561 0.187783 25.7717 0.0177783 25.076 0.010956C24.3803 0.00413368 23.6927 0.160684 23.0685 0.468015C22.4443 0.775347 21.901 1.22488 21.4822 1.78045C21.0634 2.33603 20.7809 2.98214 20.6573 3.66681C20.5337 4.35148 20.5725 5.0556 20.7706 5.72253L10.781 11.61C10.3016 11.1184 9.71473 10.7446 9.06647 10.5182C8.4182 10.2917 7.72624 10.2188 7.04499 10.305C6.36374 10.3912 5.71178 10.6343 5.14036 11.0151C4.56895 11.3959 4.09366 11.904 3.75186 12.4996C3.41049 13.0959 3.21117 13.7629 3.16936 14.4487C3.12755 15.1346 3.24438 15.8208 3.51079 16.4542C3.77719 17.0876 4.186 17.651 4.70546 18.1008C5.22492 18.5505 5.84106 18.8745 6.50603 19.0475V30.9538C5.8425 31.1285 5.22808 31.4536 4.71029 31.9038C4.1925 32.354 3.78522 32.9173 3.51998 33.5501C3.25473 34.1829 3.13862 34.8683 3.18064 35.5531C3.22265 36.238 3.42167 36.904 3.76228 37.4996C4.1036 38.0938 4.57788 38.6008 5.14794 38.9809C5.718 39.3611 6.36835 39.6041 7.04803 39.6909C7.72771 39.7777 8.41826 39.7059 9.06555 39.4811C9.71284 39.2564 10.2993 38.8848 10.7789 38.3955L20.7685 44.283C20.6491 44.6924 20.5888 45.1168 20.5894 45.5434C20.588 46.1279 20.7019 46.707 20.9246 47.2474C21.1473 47.7879 21.4743 48.2791 21.8871 48.693C22.2998 49.107 22.7902 49.4354 23.33 49.6596C23.8698 49.8838 24.4486 49.9993 25.0331 49.9996C25.7444 49.9981 26.4449 49.8262 27.0761 49.4984C27.7074 49.1706 28.2509 48.6964 28.6613 48.1155C29.0717 47.5346 29.337 46.8638 29.4351 46.1594C29.5331 45.4549 29.461 44.7372 29.2248 44.0663L39.1227 38.233C39.5892 38.7603 40.1747 39.1688 40.8305 39.4249C41.4864 39.681 42.1938 39.7772 42.8942 39.7055C43.5946 39.6338 44.2679 39.3964 44.8583 39.0128C45.4487 38.6292 45.9393 38.1105 46.2894 37.4996C46.6403 36.8942 46.8437 36.2146 46.8831 35.516C46.9224 34.8173 46.7966 34.1192 46.5157 33.4782C46.2349 32.8372 45.807 32.2714 45.2668 31.8267C44.7265 31.382 44.089 31.0708 43.406 30.9184V19.085C44.0896 18.9324 44.7278 18.6214 45.2691 18.177C45.8105 17.7326 46.24 17.1673 46.5229 16.5266C46.8059 15.8859 46.9344 15.1878 46.8982 14.4883C46.862 13.7888 46.662 13.1077 46.3144 12.4996C45.9684 11.8989 45.4867 11.3875 44.9077 11.0062C44.3288 10.6249 43.6686 10.3843 42.9801 10.3038C42.2916 10.2232 41.5937 10.3048 40.9424 10.5421C40.2911 10.7794 39.7043 11.1658 39.2289 11.6705L29.2706 5.80378L29.2685 5.80587ZM28.0206 7.75795L28.1769 7.60795L38.1935 13.51C38.0302 14.0835 37.9835 14.6839 38.0562 15.2758C38.1288 15.8676 38.3193 16.4389 38.6164 16.9559C38.9076 17.4662 39.2977 17.9134 39.7638 18.2711C40.2299 18.6288 40.7627 18.89 41.331 19.0392V30.9559C41.2766 30.9708 41.2224 30.9868 41.1685 31.0038L28.0206 7.75795ZM38.2185 36.6288L28.2727 42.4913C27.8582 42.0477 27.3569 41.6941 26.8 41.4525C26.243 41.2109 25.6423 41.0866 25.0352 41.0871C23.7727 41.0871 22.6352 41.6121 21.8269 42.458L11.8581 36.583C11.8831 36.5017 11.906 36.4205 11.9248 36.3371H38.1373C38.1623 36.435 38.1894 36.533 38.2206 36.6288H38.2185Z" fill="black"/>
</g>
</g>
</g>
</svg>
