<svg width="51" height="50" viewBox="0 0 51 50" fill="none" xmlns="http://www.w3.org/2000/svg">
<g id="ant-design:android-filled">
<path id="Vector" d="M13.2216 36.2158C13.2216 37.3584 14.1542 38.291 15.3017 38.291H17.6796V44.1699C17.6796 45.6592 18.8759 46.875 20.3456 46.875C21.8203 46.875 23.0117 45.6641 23.0117 44.1699V38.2861H27.162V44.165C27.162 45.6543 28.3583 46.8701 29.8281 46.8701C31.3027 46.8701 32.4941 45.6592 32.4941 44.165V38.2861H34.872C36.0195 38.2861 36.9521 37.3535 36.9521 36.2109V16.9141H13.2216V36.2158ZM30.6581 6.91406L32.8505 3.74023C32.9775 3.55468 32.9482 3.30566 32.7773 3.18359C32.6064 3.0664 32.3622 3.12499 32.2353 3.31054L29.9599 6.61132C28.4609 6.0205 26.791 5.69335 25.038 5.69335C23.2851 5.69335 21.6152 6.0205 20.1161 6.61132L17.8408 3.31542C17.7138 3.12988 17.4697 3.0664 17.2988 3.18847C17.1279 3.30566 17.0986 3.5498 17.2255 3.74511L19.4179 6.91894C15.9316 8.54003 13.4902 11.6113 13.1777 15.2002H36.9081C36.5859 11.6064 34.1396 8.53515 30.6581 6.91406ZM20.0283 11.9189C19.7685 11.9189 19.5145 11.8419 19.2985 11.6976C19.0825 11.5533 18.9142 11.3481 18.8148 11.1081C18.7154 10.8681 18.6893 10.604 18.74 10.3492C18.7907 10.0944 18.9158 9.86039 19.0995 9.67669C19.2832 9.493 19.5172 9.36791 19.772 9.31722C20.0268 9.26654 20.2909 9.29255 20.5309 9.39197C20.7709 9.49138 20.9761 9.65973 21.1204 9.87573C21.2647 10.0917 21.3417 10.3457 21.3417 10.6055C21.3408 10.9535 21.2022 11.2871 20.956 11.5332C20.7099 11.7794 20.3763 11.918 20.0283 11.9189ZM30.204 11.9189C29.9443 11.9189 29.6903 11.8419 29.4743 11.6976C29.2583 11.5533 29.09 11.3481 28.9905 11.1081C28.8911 10.8681 28.8651 10.604 28.9158 10.3492C28.9665 10.0944 29.0916 9.86039 29.2753 9.67669C29.459 9.493 29.693 9.36791 29.9478 9.31722C30.2026 9.26654 30.4667 9.29255 30.7067 9.39197C30.9467 9.49138 31.1518 9.65973 31.2962 9.87573C31.4405 10.0917 31.5175 10.3457 31.5175 10.6055C31.5166 10.9535 31.3779 11.2871 31.1318 11.5332C30.8857 11.7794 30.5521 11.918 30.204 11.9189ZM41.1122 16.8359C39.6376 16.8359 38.4462 18.0469 38.4462 19.541V30.1074C38.4462 31.5967 39.6425 32.8125 41.1122 32.8125C42.5869 32.8125 43.7783 31.6016 43.7783 30.1074V19.5361C43.7831 18.042 42.5917 16.8359 41.1122 16.8359ZM8.95404 16.8359C7.47943 16.8359 6.28802 18.0469 6.28802 19.541V30.1074C6.28802 31.5967 7.48431 32.8125 8.95404 32.8125C10.4286 32.8125 11.6201 31.6016 11.6201 30.1074V19.5361C11.6201 18.042 10.4238 16.8359 8.95404 16.8359Z" fill="black"/>
</g>
</svg>
