<svg width="51" height="50" viewBox="0 0 51 50" fill="none" xmlns="http://www.w3.org/2000/svg">
<g id="bi:git" clip-path="url(#clip0_0_89)">
<path id="Vector" d="M49.0894 22.7714L27.2581 0.943313C26.9592 0.644256 26.6043 0.407022 26.2137 0.245165C25.8231 0.0833082 25.4044 0 24.9816 0C24.5587 0 24.14 0.0833082 23.7494 0.245165C23.3588 0.407022 23.0039 0.644256 22.705 0.943313L18.1737 5.47456L23.9237 11.2246C24.6019 10.993 25.3315 10.9568 26.0292 11.12C26.7269 11.2833 27.3647 11.6393 27.8698 12.1477C28.3749 12.656 28.7268 13.2961 28.8856 13.9948C29.0443 14.6936 29.0034 15.4229 28.7675 16.0996L34.3081 21.6433C35.1278 21.3547 36.0214 21.3538 36.8417 21.6408C37.662 21.9278 38.3601 22.4856 38.8211 23.2224C39.282 23.9591 39.4783 24.8308 39.3777 25.6941C39.2771 26.5573 38.8855 27.3605 38.2675 27.9714C37.6418 28.601 36.817 28.9937 35.9339 29.0826C35.0508 29.1715 34.1643 28.9511 33.4257 28.4589C32.6871 27.9668 32.1422 27.2334 31.8843 26.3842C31.6263 25.535 31.6712 24.6225 32.0112 23.8027L26.8456 18.6339V32.2371C27.6308 32.6257 28.2591 33.2718 28.6257 34.0675C28.9923 34.8632 29.0751 35.7605 28.8603 36.6099C28.6456 37.4593 28.1462 38.2094 27.4454 38.7352C26.7446 39.261 25.8848 39.5308 25.0092 39.4995C24.1337 39.4682 23.2953 39.1378 22.6338 38.5633C21.9723 37.9889 21.5277 37.2051 21.3741 36.3425C21.2205 35.48 21.3671 34.5909 21.7895 33.8233C22.212 33.0558 22.8847 32.4562 23.6956 32.1246V18.3964C23.2278 18.2047 22.8025 17.9223 22.4443 17.5655C22.0861 17.2086 21.8021 16.7844 21.6086 16.3173C21.4152 15.8502 21.3161 15.3494 21.317 14.8438C21.318 14.3382 21.4191 13.8378 21.6144 13.3714L15.9487 7.70269L0.979995 22.6714C0.680938 22.9703 0.443704 23.3253 0.281847 23.7159C0.11999 24.1065 0.0366821 24.5252 0.0366821 24.948C0.0366821 25.3708 0.11999 25.7895 0.281847 26.1801C0.443704 26.5708 0.680938 26.9257 0.979995 27.2246L22.8112 49.0558C23.1102 49.3549 23.4651 49.5921 23.8557 49.754C24.2463 49.9158 24.665 49.9991 25.0878 49.9991C25.5106 49.9991 25.9293 49.9158 26.3199 49.754C26.7106 49.5921 27.0655 49.3549 27.3644 49.0558L49.0925 27.3277C49.6957 26.7236 50.0345 25.9048 50.0345 25.0511C50.0345 24.1974 49.6957 23.3786 49.0925 22.7746" fill="black"/>
</g>
<defs>
<clipPath id="clip0_0_89">
<rect width="50" height="50" fill="white" transform="translate(0.0331421)"/>
</clipPath>
</defs>
</svg>
