<svg width="50" height="50" viewBox="0 0 50 50" fill="none" xmlns="http://www.w3.org/2000/svg">
<g id="bxl:java">
<path id="Vector" d="M19.5209 36.4788C13.0834 38.2705 23.4167 41.9788 31.6042 38.5622C30.8096 38.2532 30.043 37.8768 29.3125 37.4372C26.47 38.0843 23.5337 38.2114 20.6459 37.8122C17.9167 37.4997 19.5209 36.4788 19.5209 36.4788ZM30.625 32.9788C26.9585 33.7762 23.1849 33.9593 19.4584 33.5205C16.7292 33.2288 18.5209 31.9163 18.5209 31.9163C11.4375 34.2497 22.4584 36.9163 32.3542 33.9997C31.7108 33.7883 31.1209 33.44 30.625 32.9788ZM34.4167 12.708C34.4167 12.708 20.1042 16.2705 26.9375 24.1455C27.2041 24.4651 27.4028 24.8357 27.5214 25.2347C27.64 25.6336 27.676 26.0525 27.6272 26.4659C27.5785 26.8792 27.446 27.2783 27.2379 27.6387C27.0297 27.9991 26.7503 28.3134 26.4167 28.5622C26.4167 28.5622 31.5417 25.9163 29.1875 22.6038C26.8334 19.2913 25.3125 17.9788 34.4167 12.708Z" fill="black"/>
<path id="Vector_2" d="M37.7709 39.8753C37.7709 39.8753 38.9376 40.8337 36.4584 41.5837C31.7292 43.0212 16.8126 43.4587 12.6667 41.5837C11.1667 40.9378 13.9584 40.042 14.7501 39.8545C15.2193 39.7334 15.703 39.6773 16.1876 39.6878C14.5209 38.5212 5.45841 41.9795 11.5834 42.9795C28.3542 45.8337 42.0834 41.8128 37.7709 39.8753ZM32.0209 29.7087C32.6335 29.3212 33.2742 28.98 33.9376 28.6878C33.9376 28.6878 30.7917 29.2503 27.6876 29.5212C24.3495 29.8433 20.9899 29.8782 17.6459 29.6253C12.6876 28.9795 20.2917 27.0837 20.2917 27.0837C18.0034 27.0659 15.7447 27.602 13.7084 28.6462C9.41674 30.792 24.3126 31.7295 32.0209 29.7087ZM33.9167 34.792C33.8712 34.8627 33.815 34.926 33.7501 34.9795C44.1667 32.2295 40.3751 25.292 35.3751 27.042C35.0993 27.1435 34.8599 27.3248 34.6876 27.5628C34.6876 27.5628 34.9792 27.4587 35.5834 27.3128C38.1251 26.792 41.6667 30.7087 33.9167 34.792ZM25.0001 27.0837C23.4584 23.6045 18.2084 20.542 25.0001 15.1878C33.5209 8.50033 29.1667 4.16699 29.1667 4.16699C30.9167 11.0628 22.9167 13.1462 20.1251 17.4378C18.1876 20.3753 21.1042 23.5212 25.0001 27.0837Z" fill="black"/>
<path id="Vector_3" d="M34.1876 44.4167C27.8933 45.4943 21.4702 45.5926 15.1459 44.7083C15.1459 44.7083 16.1042 45.5 21.0626 45.8125C28.5834 46.2917 40.1251 45.5625 40.4167 42C40.4167 42 39.8751 43.3333 34.1876 44.4167Z" fill="black"/>
</g>
</svg>
