<svg width="51" height="50" viewBox="0 0 51 50" fill="none" xmlns="http://www.w3.org/2000/svg">
<g id="cib:atlassian" clip-path="url(#clip0_0_108)">
<path id="Vector" d="M40.2597 49.9109H32.7644C32.1904 49.9748 31.6114 49.8475 31.1171 49.549C30.6227 49.2504 30.2406 48.7971 30.03 48.2594C27.255 42.7094 24.2363 37.2484 21.7206 31.4953C19.5028 26.7122 18.5103 21.4523 18.8327 16.1899C19.1551 10.9275 20.7823 5.8281 23.5675 1.35155C23.9097 0.765613 24.6503 0.0499878 25.2113 0.0499878C25.7816 0.0499878 26.4488 0.831238 26.7581 1.44218C34.3191 16.5625 41.8863 31.6906 49.4628 46.8281C50.5863 49.0015 50.0644 49.8875 47.5753 49.9125L40.2597 49.9109ZM9.90502 49.9109H2.19877C0.0347044 49.9109 -0.446546 49.0406 0.506579 47.1359C4.3972 39.4453 8.25345 31.7625 12.0706 24.1047C13.1128 21.9312 13.9347 21.9312 15.3831 23.7297C18.0891 26.8873 19.9808 30.6595 20.893 34.7167C21.8051 38.7739 21.71 42.9927 20.616 47.0047C19.9003 49.7547 19.5097 49.9344 16.7347 49.9344L9.90502 49.9109Z" fill="black"/>
</g>
<defs>
<clipPath id="clip0_0_108">
<rect width="50" height="50" fill="white" transform="translate(0.0331421)"/>
</clipPath>
</defs>
</svg>
