<svg width="51" height="50" viewBox="0 0 51 50" fill="none" xmlns="http://www.w3.org/2000/svg">
<g id="cib:postman" clip-path="url(#clip0_0_116)">
<path id="Vector" d="M28.2144 0.204663C14.5191 -1.54534 1.99406 8.12185 0.237805 21.8187C-1.51219 35.514 8.15499 48.039 21.8519 49.7953C35.5472 51.5453 48.0722 41.8781 49.8206 28.1812C51.5784 14.4859 41.9128 1.96091 28.2144 0.204663ZM33.3581 15.8047C32.8941 15.8047 32.4534 15.9922 32.1284 16.325L22.8519 25.5937L22.2097 24.9578L20.8737 23.6156C30.0128 14.5015 31.6659 14.4109 33.3566 15.8031L33.3581 15.8047ZM23.2347 25.9265L32.4784 16.675C32.6002 16.548 32.7466 16.4472 32.9086 16.3785C33.0705 16.3098 33.2448 16.2748 33.4207 16.2755C33.5967 16.2762 33.7706 16.3127 33.932 16.3827C34.0934 16.4527 34.2389 16.5548 34.3597 16.6828C34.4796 16.8108 34.5721 16.962 34.6316 17.127C34.6911 17.292 34.7163 17.4674 34.7056 17.6425C34.6949 17.8176 34.6486 17.9887 34.5695 18.1452C34.4904 18.3018 34.3802 18.4406 34.2456 18.5531L24.4566 27.1469L23.2347 25.9265ZM23.9191 27.3765L21.6237 27.8719C21.596 27.8757 21.5678 27.8706 21.5431 27.8574C21.5184 27.8442 21.4985 27.8236 21.4862 27.7984C21.4737 27.7743 21.4694 27.7468 21.4739 27.72C21.4784 27.6932 21.4915 27.6686 21.5112 27.65L22.8534 26.3078L23.9191 27.3765ZM18.0753 26.4172L20.5253 23.975L22.3566 25.8062L18.23 26.6922C18.1953 26.7013 18.1584 26.6983 18.1257 26.6835C18.093 26.6687 18.0664 26.643 18.0503 26.6109C18.0324 26.5804 18.0251 26.5448 18.0296 26.5098C18.0342 26.4747 18.0502 26.4421 18.0753 26.4172ZM10.4831 39.0375C10.3941 39.0297 10.3269 38.9484 10.3347 38.8672C10.3413 38.8301 10.3587 38.7959 10.3847 38.7687H10.3925L12.3612 36.8L14.9097 39.3484L10.4831 39.0375ZM15.5347 36.4172C15.4411 36.468 15.3666 36.548 15.3226 36.645C15.2786 36.742 15.2675 36.8507 15.2909 36.9547L15.7144 38.7547C15.7816 39.0156 15.4628 39.1922 15.2753 38.9984H15.2675L12.7128 36.4422L20.5503 28.6125L24.3425 27.7922L26.1566 29.6156C23.5441 31.9094 19.9706 34.1968 15.5362 36.4172H15.5347ZM26.5316 29.2812L24.7816 27.5312L34.5706 18.9375C34.6597 18.8562 34.7409 18.7672 34.8144 18.6765C34.5144 21.4765 30.5909 25.4312 26.5316 29.2812ZM34.1566 15.8203H34.1487C30.7378 12.3937 35.5566 7.1281 39.2675 10.2203L35.9159 13.5828C35.8925 13.6062 35.8739 13.6339 35.8612 13.6645C35.8485 13.6951 35.842 13.7278 35.842 13.7609C35.842 13.794 35.8485 13.8268 35.8612 13.8573C35.8739 13.8879 35.8925 13.9157 35.9159 13.939L38.5112 16.5375C37.8018 16.8894 36.9997 17.0095 36.2183 16.8808C35.4369 16.7521 34.7157 16.3811 34.1566 15.8203ZM39.5191 15.8203C39.3491 15.9917 39.161 16.1441 38.9581 16.275L36.4441 13.7609L39.6331 10.5625C40.2972 11.2838 40.6562 12.2341 40.635 13.2144C40.6137 14.1946 40.2138 15.1285 39.5191 15.8203ZM39.3144 12.6062C39.2642 12.642 39.2264 12.6925 39.2063 12.7508C39.1861 12.809 39.1846 12.8721 39.2019 12.9312C39.2776 13.0805 39.3079 13.2488 39.289 13.4151C39.2701 13.5815 39.2029 13.7386 39.0956 13.8672C39.0709 13.8972 39.0524 13.932 39.0415 13.9693C39.0305 14.0067 39.0271 14.0458 39.0316 14.0845C39.0362 14.1232 39.0485 14.1605 39.0678 14.1943C39.0871 14.2281 39.113 14.2577 39.1441 14.2812C39.1939 14.3169 39.2531 14.3371 39.3144 14.339C39.4034 14.339 39.4878 14.3062 39.5347 14.2406C39.7141 14.0248 39.8272 13.7618 39.8605 13.4831C39.8937 13.2045 39.8457 12.9222 39.7222 12.6703C39.6999 12.639 39.6715 12.6125 39.6388 12.5923C39.6061 12.5721 39.5697 12.5586 39.5317 12.5526C39.4938 12.5466 39.455 12.5483 39.4176 12.5575C39.3803 12.5667 39.3452 12.5833 39.3144 12.6062Z" fill="black"/>
</g>
<defs>
<clipPath id="clip0_0_116">
<rect width="50" height="50" fill="white" transform="translate(0.0331421)"/>
</clipPath>
</defs>
</svg>
