<svg width="51" height="50" viewBox="0 0 51 50" fill="none" xmlns="http://www.w3.org/2000/svg">
<g id="cib:js">
<path id="Vector" d="M3.15814 3.125V46.875H46.9081V3.125H3.15814ZM26.9675 37.2453C26.9675 41.5031 24.4675 43.4469 20.8253 43.4469C17.5347 43.4469 15.63 41.7484 14.6535 39.6875L18.0035 37.6656C18.6488 38.8078 19.2347 39.775 20.6503 39.775C21.9972 39.775 22.8566 39.2469 22.8566 37.1875V23.2125H26.9675V37.2453ZM36.6925 43.4469C32.8738 43.4469 30.4035 41.6312 29.2019 39.2469L32.5519 37.3141C33.4316 38.75 34.5831 39.8141 36.605 39.8141C38.3035 39.8141 39.3988 38.9641 39.3988 37.7828C39.3988 36.3766 38.2847 35.8781 36.4003 35.0484L35.3753 34.6094C32.4066 33.35 30.4441 31.7578 30.4441 28.4078C30.4441 25.3219 32.7972 22.9781 36.4597 22.9781C39.0769 22.9781 40.9519 23.8859 42.3003 26.2688L39.0972 28.3203C38.3941 27.0609 37.6316 26.5625 36.4503 26.5625C35.2503 26.5625 34.4878 27.325 34.4878 28.3203C34.4878 29.5516 35.2503 30.0484 37.0175 30.8203L38.0425 31.2594C41.5394 32.7531 43.5019 34.2875 43.5019 37.7234C43.5019 41.4156 40.591 43.4453 36.6941 43.4453L36.6925 43.4469Z" fill="black"/>
</g>
</svg>
