<svg width="51" height="50" viewBox="0 0 51 50" fill="none" xmlns="http://www.w3.org/2000/svg">
<g id="cib:docker" clip-path="url(#clip0_0_112)">
<path id="Vector" d="M10.0753 35.9859C8.65189 35.9859 7.35814 34.8234 7.35814 33.4062C7.35814 31.9891 8.52064 30.8188 10.0753 30.8188C11.6378 30.8188 12.8113 31.9828 12.8113 33.4062C12.8113 34.8234 11.5097 35.9859 10.0847 35.9859H10.0753ZM43.4331 21.9C43.1472 19.8328 41.8706 18.1484 40.1847 16.8625L39.5269 16.3422L38.9972 16.9844C37.9722 18.1484 37.5581 20.2156 37.6863 21.7609C37.8097 22.9344 38.1816 24.0969 38.8425 25C38.305 25.2766 37.655 25.5203 37.1488 25.7891C35.9613 26.1781 34.805 26.3094 33.6503 26.3094H0.236265L0.105015 27.0734C-0.147724 29.5939 0.256545 32.1369 1.27845 34.4547L1.79095 35.3594V35.4797C4.91595 40.6563 10.4738 42.9844 16.5363 42.9844C28.191 42.9844 37.7441 37.9469 42.2753 27.0828C45.2456 27.2125 48.2425 26.4391 49.6488 23.5906L50.0238 22.9484L49.405 22.5562C47.7128 21.5234 45.4003 21.3859 43.466 21.9063L43.4238 21.9141L43.4331 21.9ZM26.7503 19.8328H21.6894V24.8766H26.7503V19.8328ZM26.7503 13.4937H21.6894V18.5375H26.7503V13.4937ZM26.7503 7.02344H21.6894V12.0688H26.7503V7.02344ZM32.9347 19.8328H27.905V24.8766H32.9503V19.8328H32.9347ZM14.1941 19.8328H9.16439V24.8766H14.2097V19.8328H14.1941ZM20.5003 19.8328H15.505V24.8766H20.5347V19.8328H20.5003ZM7.94408 19.8328H2.94564V24.8766H8.00814V19.8328H7.94408ZM20.5003 13.4937H15.505V18.5375H20.5347V13.5L20.5003 13.4937ZM14.1597 13.4937H9.1722V18.5375H14.2019V13.5L14.1691 13.4937H14.1597Z" fill="black"/>
</g>
<defs>
<clipPath id="clip0_0_112">
<rect width="50" height="50" fill="white" transform="translate(0.0331421)"/>
</clipPath>
</defs>
</svg>
