<svg width="51" height="50" viewBox="0 0 51 50" fill="none" xmlns="http://www.w3.org/2000/svg">
<g id="mdi:language-csharp">
<path id="Vector" d="M23.9915 33.2712L24.8457 38.3545C24.304 38.6462 23.429 38.917 22.2623 39.167C21.0748 39.4378 19.679 39.5837 18.0748 39.5837C13.4707 39.5003 10.0123 38.1253 7.69983 35.5003C5.3665 32.8545 4.19983 29.5003 4.19983 25.4378C4.304 20.6253 5.69983 16.9378 8.3665 14.3545C11.1165 11.7503 14.5332 10.417 18.6582 10.417C20.2207 10.417 21.5748 10.5628 22.6998 10.8128C23.8248 11.0628 24.6582 11.3337 25.1998 11.6462L23.9915 16.8337L21.7832 16.1253C20.9498 15.917 19.9915 15.8128 18.8873 15.8128C16.4707 15.792 14.4707 16.5628 12.9082 18.1045C11.3248 19.6253 10.5123 21.9587 10.4498 25.0628C10.4498 27.8962 11.2207 30.1045 12.6998 31.7295C14.179 33.3337 16.2623 34.167 18.929 34.1878L21.6998 33.9378C22.5957 33.7712 23.3457 33.542 23.9915 33.2712ZM28.9707 39.5837L30.2415 31.2503H27.1165L27.8248 27.0837H30.9498L31.6165 22.917H28.4915L29.1998 18.7503H32.3248L33.5957 10.417H37.7623L36.4915 18.7503H38.5748L39.8457 10.417H44.0123L42.7415 18.7503H45.8665L45.1582 22.917H42.0332L41.3665 27.0837H44.4915L43.7832 31.2503H40.6582L39.3873 39.5837H35.2207L36.4915 31.2503H34.4082L33.1373 39.5837H28.9707ZM35.1165 27.0837H37.1998L37.8665 22.917H35.7832L35.1165 27.0837Z" fill="black"/>
</g>
</svg>
