<svg width="51" height="50" viewBox="0 0 51 50" fill="none" xmlns="http://www.w3.org/2000/svg">
<g id="simple-icons:springboot" clip-path="url(#clip0_0_164)">
<path id="Vector" d="M49.3936 22.3046L39.5394 5.25247C38.6852 3.77331 36.5873 2.55664 34.8727 2.55664H15.1852C13.4769 2.55664 11.3707 3.77331 10.5186 5.25247L0.670654 22.3046C-0.183512 23.7837 -0.183512 26.2066 0.670654 27.6879L10.5144 44.7483C11.3686 46.2275 13.4665 47.4441 15.1811 47.4441H34.879C36.5873 47.4441 38.6832 46.2275 39.5457 44.7483L49.3915 27.6858C50.2457 26.2066 50.2457 23.7837 49.3915 22.3046H49.3936ZM22.8998 11.99C22.8998 10.8712 23.8123 9.95872 24.929 9.95872C26.0457 9.95872 26.9602 10.8712 26.9602 11.99V24.1171C26.9272 24.6328 26.699 25.1165 26.3221 25.47C25.9452 25.8235 25.4478 26.0203 24.9311 26.0203C24.4143 26.0203 23.917 25.8235 23.54 25.47C23.1631 25.1165 22.935 24.6328 22.9019 24.1171L22.8998 11.99ZM24.929 37.8858C21.2792 37.8808 17.7804 36.4285 15.2 33.8473C12.6196 31.2661 11.1683 27.7669 11.1644 24.1171C11.1693 21.9703 11.674 19.8542 12.6384 17.9363C13.6027 16.0184 15.0004 14.3513 16.7207 13.0671C16.9112 12.9251 17.1278 12.8222 17.3582 12.7642C17.5886 12.7063 17.8281 12.6944 18.0631 12.7292C18.2981 12.764 18.5239 12.845 18.7276 12.9673C18.9312 13.0896 19.1087 13.251 19.2498 13.4421C19.3916 13.6322 19.4946 13.8485 19.5527 14.0786C19.6108 14.3086 19.623 14.5478 19.5886 14.7825C19.5541 15.0172 19.4737 15.2429 19.3519 15.4465C19.2302 15.6501 19.0695 15.8277 18.879 15.9691C16.7919 17.602 15.4255 19.9857 15.0713 22.6118C14.717 25.2379 15.4029 27.8985 16.9827 30.0259C18.5625 32.1534 20.911 33.5794 23.5274 33.9996C26.1438 34.4199 28.8208 33.8011 30.9873 32.2754C32.2597 31.3297 33.2931 30.0993 34.0047 28.6826C34.7162 27.266 35.0863 25.7024 35.0852 24.1171C35.0811 22.5258 34.7047 20.9576 33.9863 19.5378C33.2679 18.118 32.2273 16.8859 30.9477 15.94C30.5627 15.6545 30.3063 15.2281 30.2349 14.7541C30.1634 14.2801 30.2827 13.7971 30.5665 13.4108C30.852 13.0257 31.2784 12.7694 31.7524 12.698C32.2263 12.6265 32.7094 12.7457 33.0957 13.0296C34.8295 14.3124 36.2389 15.9834 37.2109 17.9087C38.183 19.834 38.6908 21.9602 38.6936 24.1171C38.6908 27.7674 37.2395 31.2674 34.6584 33.8485C32.0772 36.4297 28.5772 37.881 24.9269 37.8837L24.929 37.8858Z" fill="black"/>
</g>
<defs>
<clipPath id="clip0_0_164">
<rect width="50" height="50" fill="white" transform="translate(0.0331421)"/>
</clipPath>
</defs>
</svg>
